<?xml version="1.0" encoding="utf-8"?>
<svg viewBox="-175.3338 -140.1654 496.6208 476.3282" xmlns="http://www.w3.org/2000/svg">
  <defs>
    <linearGradient id="a" x1="21.083" x2="19.989" y1="-12.459" y2="76.136" gradientUnits="userSpaceOnUse" gradientTransform="matrix(1, 0, 0, 1, 70.804583, 24.865892)">
      <stop offset="0.268" stop-color="#F1C100"/>
      <stop offset="1" stop-color="#F39607"/>
    </linearGradient>
  </defs>
  <g transform="matrix(10.902641296386719, 0, 0, 10.902641296386719, -978.6349487304688, -442.61285400390625)" style="">
    <path fill="url(#a)" d="M 104.681 31.627 C 108.632 31.896 111.777 35.04 112.045 38.991 C 112.162 40.717 112.842 42.357 113.979 43.661 C 116.582 46.644 116.582 51.091 113.979 54.074 C 112.842 55.377 112.162 57.017 112.045 58.743 C 111.777 62.693 108.632 65.838 104.681 66.107 C 102.956 66.224 101.315 66.903 100.012 68.041 C 97.029 70.644 92.582 70.644 89.598 68.041 C 88.295 66.903 86.655 66.224 84.929 66.107 C 80.979 65.838 77.834 62.693 77.565 58.743 C 77.449 57.017 76.769 55.377 75.631 54.074 C 73.029 51.091 73.029 46.644 75.631 43.661 C 76.769 42.357 77.448 40.717 77.565 38.991 C 77.834 35.04 80.979 31.896 84.929 31.627 C 86.656 31.51 88.296 30.831 89.599 29.693 C 92.583 27.09 97.029 27.09 100.012 29.693 C 101.316 30.831 102.956 31.51 104.682 31.627 L 104.681 31.627 Z"/>
    <path fill="#C7C7C7" d="M 112.763 67.073 C 111.003 67.073 109.918 67.625 108.962 68.119 C 108.122 68.547 107.453 68.889 106.297 68.889 C 105.14 68.889 104.472 68.547 103.631 68.119 C 102.675 67.625 101.59 67.073 99.83 67.073 C 98.069 67.073 96.984 67.625 96.029 68.119 C 95.188 68.547 94.52 68.889 93.363 68.889 L 93.363 71.43 C 95.123 71.43 96.208 70.878 97.164 70.385 C 98.005 69.956 98.673 69.615 99.83 69.615 C 100.987 69.615 101.655 69.956 102.496 70.385 C 103.451 70.871 104.536 71.43 106.297 71.43 C 108.057 71.43 109.142 70.878 110.098 70.385 C 110.938 69.956 111.607 69.615 112.763 69.615 C 113.92 69.615 114.588 69.956 115.429 70.385 C 116.385 70.871 117.47 71.43 119.23 71.43 L 119.23 68.889 C 118.073 68.889 117.405 68.547 116.564 68.119 C 115.609 67.625 114.524 67.073 112.763 67.073 Z M 112.763 61.264 C 111.003 61.264 109.918 61.816 108.962 62.31 C 108.122 62.738 107.453 63.08 106.297 63.08 C 105.14 63.08 104.472 62.738 103.631 62.31 C 102.675 61.816 101.59 61.264 99.83 61.264 C 98.069 61.264 96.984 61.816 96.029 62.31 C 95.188 62.738 94.52 63.08 93.363 63.08 L 93.363 65.621 C 95.123 65.621 96.208 65.069 97.164 64.575 C 98.005 64.147 98.673 63.806 99.83 63.806 C 100.987 63.806 101.655 64.147 102.496 64.575 C 103.451 65.062 104.536 65.621 106.297 65.621 C 108.057 65.621 109.142 65.069 110.098 64.575 C 110.938 64.147 111.607 63.806 112.763 63.806 C 113.92 63.806 114.588 64.147 115.429 64.575 C 116.385 65.062 117.47 65.621 119.23 65.621 L 119.23 63.08 C 118.073 63.08 117.405 62.738 116.564 62.31 C 115.609 61.816 114.524 61.264 112.763 61.264 Z M 112.763 55.455 C 111.003 55.455 109.918 56.007 108.962 56.501 C 108.122 56.929 107.453 57.27 106.297 57.27 C 105.14 57.27 104.472 56.929 103.631 56.501 C 102.675 56.007 101.59 55.455 99.83 55.455 C 98.069 55.455 96.984 56.007 96.029 56.501 C 95.188 56.929 94.52 57.27 93.363 57.27 L 93.363 59.812 C 95.123 59.812 96.208 59.26 97.164 58.766 C 98.005 58.338 98.673 57.997 99.83 57.997 C 100.987 57.997 101.655 58.338 102.496 58.766 C 103.451 59.253 104.536 59.812 106.297 59.812 C 108.057 59.812 109.142 59.26 110.098 58.766 C 110.938 58.338 111.607 57.997 112.763 57.997 C 113.92 57.997 114.588 58.338 115.429 58.766 C 116.385 59.253 117.47 59.812 119.23 59.812 L 119.23 57.27 C 118.073 57.27 117.405 56.929 116.564 56.501 C 115.609 56.007 114.524 55.455 112.763 55.455 Z M 116.564 50.692 C 115.609 50.198 114.524 49.646 112.763 49.646 C 111.003 49.646 109.918 50.198 108.962 50.692 C 108.122 51.12 107.453 51.461 106.297 51.461 C 105.14 51.461 104.472 51.12 103.631 50.692 C 102.675 50.198 101.59 49.646 99.83 49.646 C 98.069 49.646 96.984 50.198 96.029 50.692 C 95.188 51.12 94.52 51.461 93.363 51.461 L 93.363 54.003 C 95.123 54.003 96.208 53.451 97.164 52.957 C 98.005 52.529 98.673 52.187 99.83 52.187 C 100.987 52.187 101.655 52.529 102.496 52.957 C 103.451 53.444 104.536 54.003 106.297 54.003 C 108.057 54.003 109.142 53.451 110.098 52.957 C 110.938 52.529 111.607 52.187 112.763 52.187 C 113.92 52.187 114.588 52.529 115.429 52.957 C 116.385 53.444 117.47 54.003 119.23 54.003 L 119.23 51.461 C 118.073 51.461 117.405 51.12 116.564 50.692 Z" style=""/>
  </g>
</svg>